<?xml version="1.0" encoding="UTF-8"?>
<svg id="Capa_1" data-name="Capa 1" xmlns="http://www.w3.org/2000/svg" viewBox="0 0 2438.78 672.49">
  <defs>
    <style>
      .cls-1 {
        fill: #bfbfbf;
      }

      .cls-2 {
        fill: #66f2e4;
      }

      .cls-3 {
        fill: #49a69c;
      }
    </style>
  </defs>
  <g>
    <path class="cls-3" d="m615.78,661.07v-54.98h6.58v54.98h-6.58Zm3.86,0v-6.2h31.46v6.2h-31.46Z"/>
    <path class="cls-3" d="m655.63,661.07l20.27-54.98h6.58l20.27,54.98h-7.18l-16.37-46.81-16.37,46.81h-7.18Zm9.34-12.7v-6.2h28.93v6.2h-28.93Z"/>
    <path class="cls-3" d="m724.3,612.29v-6.2h38.79v6.2h-38.79Zm16.11,48.78v-51.61h6.58v51.61h-6.58Z"/>
    <path class="cls-3" d="m770.66,661.07v-54.98h6.58v54.98h-6.58Zm3.74-48.78v-6.2h31.57v6.2h-31.57Zm0,24.58v-6.2h27.41v6.2h-27.41Zm0,24.2v-6.2h31.57v6.2h-31.57Z"/>
    <path class="cls-3" d="m834.94,661.64c-3.83,0-7.18-.85-10.06-2.55-2.87-1.7-5.1-4.09-6.69-7.17-1.59-3.07-2.38-6.67-2.38-10.78v-15.09c0-4.13.79-7.74,2.38-10.81,1.59-3.07,3.82-5.46,6.69-7.17,2.87-1.7,6.23-2.55,10.06-2.55,3.18,0,6.08.66,8.71,1.99,2.64,1.32,4.84,3.18,6.62,5.58,1.77,2.4,2.98,5.19,3.61,8.39h-6.65c-.55-1.94-1.46-3.64-2.7-5.09-1.25-1.45-2.71-2.58-4.39-3.38-1.68-.81-3.41-1.21-5.2-1.21-3.76,0-6.77,1.3-9.06,3.91-2.28,2.61-3.42,6.06-3.42,10.34v15.09c0,4.29,1.14,7.73,3.42,10.32,2.28,2.6,5.3,3.89,9.06,3.89,2.67,0,5.18-.84,7.52-2.51,2.34-1.68,3.93-4.06,4.76-7.17h6.65c-.63,3.2-1.84,6-3.63,8.39-1.79,2.4-3.99,4.25-6.62,5.58s-5.52,1.99-8.7,1.99Z"/>
    <path class="cls-3" d="m864.09,661.03v-54.94h6.24l29.42,46.02-1.59-.26v-45.75h6.54v54.94h-6.31l-29.68-45.9,1.93.6v45.3h-6.54Z"/>
    <path class="cls-3" d="m936.5,661.64c-4.01,0-7.46-.81-10.34-2.44-2.89-1.63-5.11-3.96-6.65-7-1.55-3.04-2.33-6.65-2.33-10.83v-15.58c0-4.21.77-7.83,2.33-10.85,1.55-3.02,3.77-5.35,6.65-6.98,2.88-1.63,6.33-2.44,10.34-2.44s7.46.81,10.34,2.44c2.89,1.63,5.11,3.95,6.65,6.98,1.55,3.02,2.33,6.64,2.33,10.85v15.58c0,4.18-.77,7.8-2.33,10.83-1.55,3.04-3.77,5.37-6.65,7-2.88,1.63-6.33,2.44-10.34,2.44Zm0-6.31c3.93,0,7.03-1.22,9.28-3.67,2.26-2.44,3.39-5.79,3.39-10.02v-16.11c0-4.26-1.13-7.61-3.39-10.04-2.26-2.43-5.35-3.65-9.28-3.65s-7.03,1.22-9.28,3.65c-2.26,2.43-3.39,5.78-3.39,10.04v16.11c0,4.23,1.13,7.58,3.39,10.02,2.26,2.45,5.35,3.67,9.28,3.67Z"/>
    <path class="cls-3" d="m967.54,661.07v-54.98h6.58v54.98h-6.58Zm3.86,0v-6.2h31.46v6.2h-31.46Z"/>
    <path class="cls-3" d="m1028.61,661.64c-4.01,0-7.46-.81-10.34-2.44-2.89-1.63-5.11-3.96-6.65-7-1.55-3.04-2.33-6.65-2.33-10.83v-15.58c0-4.21.77-7.83,2.33-10.85,1.55-3.02,3.77-5.35,6.65-6.98,2.88-1.63,6.33-2.44,10.34-2.44s7.46.81,10.34,2.44c2.89,1.63,5.11,3.95,6.65,6.98,1.55,3.02,2.33,6.64,2.33,10.85v15.58c0,4.18-.77,7.8-2.33,10.83-1.55,3.04-3.77,5.37-6.65,7-2.88,1.63-6.33,2.44-10.34,2.44Zm0-6.31c3.93,0,7.03-1.22,9.28-3.67,2.26-2.44,3.39-5.79,3.39-10.02v-16.11c0-4.26-1.13-7.61-3.39-10.04-2.26-2.43-5.35-3.65-9.28-3.65s-7.03,1.22-9.28,3.65c-2.26,2.43-3.39,5.78-3.39,10.04v16.11c0,4.23,1.13,7.58,3.39,10.02,2.26,2.45,5.35,3.67,9.28,3.67Z"/>
    <path class="cls-3" d="m1077.42,632.22h19.06v8.85c0,4.36-.76,8.08-2.27,11.15-1.51,3.08-3.7,5.41-6.56,7.01-2.86,1.6-6.33,2.4-10.42,2.4s-7.65-.76-10.55-2.27c-2.9-1.51-5.11-3.71-6.64-6.6-1.52-2.89-2.29-6.38-2.29-10.49v-16.22c0-4.36.76-8.07,2.27-11.14s3.7-5.39,6.56-7c2.86-1.6,6.33-2.4,10.42-2.4,3.38,0,6.37.64,8.98,1.93,2.61,1.29,4.76,3.14,6.47,5.56,1.7,2.42,2.89,5.37,3.57,8.85h-7.11c-.83-3.3-2.31-5.8-4.42-7.51s-4.61-2.55-7.49-2.55c-4.03,0-7.14,1.24-9.32,3.72-2.18,2.48-3.27,5.99-3.27,10.53v16.22c0,4.18,1.12,7.41,3.35,9.68,2.23,2.27,5.39,3.4,9.47,3.4s7.05-1.18,9.21-3.55c2.16-2.37,3.23-5.91,3.23-10.63v-2.76h-12.25v-6.2Z"/>
    <path class="cls-3" d="m1112.4,602.5l-3.89-3.89,10.63-9.26,4.42,4.61-11.15,8.55Zm2.95,3.59v54.98h-6.58v-54.98h6.58Z"/>
    <path class="cls-3" d="m1123.48,661.07l20.27-54.98h6.58l20.27,54.98h-7.18l-16.37-46.81-16.37,46.81h-7.18Zm9.34-12.7v-6.2h28.93v6.2h-28.93Z"/>
    <path class="cls-3" d="m1177.32,672.49v-18.57h7.11v10.93l-7.11,7.64Z"/>
    <path class="cls-3" d="m1217.25,661.03v-54.94h6.24l29.42,46.02-1.59-.26v-45.75h6.54v54.94h-6.31l-29.68-45.9,1.93.6v45.3h-6.54Z"/>
    <path class="cls-3" d="m1290,661.64c-6.3,0-11.09-1.73-14.37-5.18-3.28-3.45-4.92-8.48-4.92-15.09v-35.28h6.58v35.54c0,4.41,1.08,7.77,3.23,10.08,2.15,2.31,5.31,3.46,9.47,3.46s7.36-1.15,9.53-3.46,3.25-5.67,3.25-10.08v-35.54h6.58v35.28c0,6.6-1.65,11.63-4.93,15.09-3.29,3.45-8.1,5.18-14.43,5.18Z"/>
    <path class="cls-3" d="m1321.46,661.07v-54.98h6.58v54.98h-6.58Zm3.74-48.78v-6.2h31.57v6.2h-31.57Zm0,24.58v-6.2h27.41v6.2h-27.41Zm0,24.2v-6.2h31.57v6.2h-31.57Z"/>
    <path class="cls-3" d="m1384.27,661.64c-2.67,0-5.19-.25-7.54-.76-2.36-.5-4.56-1.26-6.62-2.27-2.05-1.01-3.97-2.27-5.77-3.78l4.05-5.1c2.19,1.92,4.61,3.35,7.26,4.31,2.65.96,5.52,1.44,8.62,1.44,4.36,0,7.73-.84,10.11-2.51,2.38-1.68,3.57-4.03,3.57-7.05v-.04c0-2.19-.59-3.88-1.78-5.05-1.19-1.17-2.74-2.05-4.65-2.65-1.92-.59-3.99-1.09-6.24-1.49-2.14-.38-4.29-.82-6.45-1.32-2.16-.5-4.13-1.25-5.92-2.23s-3.23-2.38-4.33-4.2c-1.09-1.81-1.64-4.23-1.64-7.26v-.04c0-5.12,1.7-9.08,5.1-11.89,3.4-2.81,8.21-4.22,14.41-4.22,2.92,0,5.8.47,8.62,1.42s5.58,2.39,8.28,4.33l-3.78,5.18c-2.24-1.61-4.45-2.81-6.62-3.59-2.17-.78-4.34-1.17-6.5-1.17-4.13,0-7.34.85-9.6,2.53-2.27,1.69-3.4,4.08-3.4,7.18v.04c0,2.17.65,3.82,1.95,4.95,1.3,1.13,2.99,1.99,5.09,2.55,2.09.57,4.32,1.09,6.69,1.57,2.07.4,4.13.9,6.18,1.47,2.05.58,3.91,1.39,5.58,2.42,1.66,1.03,3,2.45,4.01,4.25,1.01,1.8,1.51,4.13,1.51,6.98v.08c0,5.07-1.76,8.99-5.29,11.76-3.53,2.77-8.49,4.16-14.9,4.16Z"/>
    <path class="cls-3" d="m1407.86,612.29v-6.2h38.79v6.2h-38.79Zm16.11,48.78v-51.61h6.58v51.61h-6.58Z"/>
    <path class="cls-3" d="m1454.22,661.07v-55.02h6.58v55.02h-6.58Zm3.37-23.25v-6.2h18.75c2.67,0,4.82-.88,6.43-2.65,1.61-1.76,2.43-4.11,2.46-7.03,0-2.92-.81-5.27-2.42-7.03-1.61-1.76-3.77-2.65-6.47-2.65h-18.75v-6.2h18.45c3.2,0,6,.66,8.39,1.99,2.4,1.32,4.25,3.17,5.58,5.54,1.33,2.37,1.99,5.16,1.99,8.36s-.67,5.96-2,8.34c-1.34,2.38-3.19,4.23-5.58,5.56-2.38,1.32-5.17,1.99-8.37,1.99h-18.45Zm28.89,23.25l-12.59-24.96,6.35-1.74,14.07,26.7h-7.83Z"/>
    <path class="cls-3" d="m1521.37,661.64c-4.01,0-7.46-.81-10.34-2.44-2.89-1.63-5.11-3.96-6.65-7-1.55-3.04-2.33-6.65-2.33-10.83v-15.58c0-4.21.77-7.83,2.33-10.85,1.55-3.02,3.77-5.35,6.65-6.98,2.88-1.63,6.33-2.44,10.34-2.44s7.46.81,10.34,2.44c2.89,1.63,5.11,3.95,6.65,6.98,1.55,3.02,2.33,6.64,2.33,10.85v15.58c0,4.18-.77,7.8-2.33,10.83-1.55,3.04-3.77,5.37-6.65,7-2.88,1.63-6.33,2.44-10.34,2.44Zm0-6.31c3.93,0,7.03-1.22,9.28-3.67,2.26-2.44,3.39-5.79,3.39-10.02v-16.11c0-4.26-1.13-7.61-3.39-10.04-2.26-2.43-5.35-3.65-9.28-3.65s-7.03,1.22-9.28,3.65c-2.26,2.43-3.39,5.78-3.39,10.04v16.11c0,4.23,1.13,7.58,3.39,10.02,2.26,2.45,5.35,3.67,9.28,3.67Z"/>
    <path class="cls-3" d="m1573.97,661.07v-54.98h6.58v54.98h-6.58Zm3.97-21.33v-6.2h17.58c2.9,0,5.22-.98,6.98-2.93,1.75-1.95,2.63-4.51,2.63-7.66s-.88-5.81-2.63-7.75c-1.75-1.94-4.08-2.91-6.98-2.91h-17.58v-6.2h17.32c3.33,0,6.23.7,8.7,2.1s4.39,3.36,5.77,5.88c1.37,2.52,2.06,5.48,2.06,8.89s-.69,6.29-2.06,8.81c-1.37,2.52-3.3,4.48-5.77,5.88-2.47,1.4-5.37,2.1-8.7,2.1h-17.32Z"/>
    <path class="cls-3" d="m1639.61,661.64c-4.01,0-7.46-.81-10.34-2.44-2.89-1.63-5.11-3.96-6.65-7-1.55-3.04-2.33-6.65-2.33-10.83v-15.58c0-4.21.77-7.83,2.33-10.85,1.55-3.02,3.77-5.35,6.65-6.98,2.88-1.63,6.33-2.44,10.34-2.44s7.46.81,10.34,2.44c2.89,1.63,5.11,3.95,6.65,6.98,1.55,3.02,2.33,6.64,2.33,10.85v15.58c0,4.18-.77,7.8-2.33,10.83-1.55,3.04-3.77,5.37-6.65,7-2.88,1.63-6.33,2.44-10.34,2.44Zm0-6.31c3.93,0,7.03-1.22,9.28-3.67,2.26-2.44,3.39-5.79,3.39-10.02v-16.11c0-4.26-1.13-7.61-3.39-10.04-2.26-2.43-5.35-3.65-9.28-3.65s-7.03,1.22-9.28,3.65c-2.26,2.43-3.39,5.78-3.39,10.04v16.11c0,4.23,1.13,7.58,3.39,10.02,2.26,2.45,5.35,3.67,9.28,3.67Z"/>
    <path class="cls-3" d="m1670.65,661.07v-54.98h6.58v54.98h-6.58Zm5.22,0v-6.2h12.44c4.59,0,8.07-1.12,10.46-3.37,2.38-2.24,3.57-5.52,3.57-9.83v-16.18c0-4.31-1.19-7.59-3.57-9.83-2.38-2.24-5.87-3.37-10.46-3.37h-12.44v-6.2h12.21c6.83,0,12.02,1.68,15.58,5.03,3.55,3.35,5.33,8.24,5.33,14.67v15.58c0,4.29-.79,7.89-2.38,10.81-1.59,2.92-3.94,5.14-7.05,6.64-3.11,1.5-6.95,2.25-11.51,2.25h-12.18Z"/>
    <path class="cls-3" d="m1720.72,661.07v-54.98h6.58v54.98h-6.58Zm3.74-48.78v-6.2h31.57v6.2h-31.57Zm0,24.58v-6.2h27.41v6.2h-27.41Zm0,24.2v-6.2h31.57v6.2h-31.57Z"/>
    <path class="cls-3" d="m1767,661.07v-55.02h6.58v55.02h-6.58Zm3.37-23.25v-6.2h18.75c2.67,0,4.82-.88,6.43-2.65,1.61-1.76,2.43-4.11,2.46-7.03,0-2.92-.81-5.27-2.42-7.03-1.61-1.76-3.77-2.65-6.47-2.65h-18.75v-6.2h18.45c3.2,0,6,.66,8.39,1.99,2.4,1.32,4.25,3.17,5.58,5.54,1.33,2.37,1.99,5.16,1.99,8.36s-.67,5.96-2,8.34c-1.34,2.38-3.19,4.23-5.58,5.56-2.38,1.32-5.17,1.99-8.37,1.99h-18.45Zm28.89,23.25l-12.59-24.96,6.35-1.74,14.07,26.7h-7.83Z"/>
    <path class="cls-3" d="m1815.89,661.07v-7.15h7.11v7.15h-7.11Z"/>
  </g>
  <g>
    <path class="cls-2" d="m163.26,465.15v8.92c.18,46.24-36.66,59.62-81.58,59.71C36.66,533.69-.18,520.31,0,474.07v-8.92c-.18-46.33,36.66-59.62,81.67-59.71,45.02,0,81.58,13.47,81.58,59.71Zm-46.62,2.91c.27-19.93-15.93-23.57-34.96-23.85-19.13.27-35.32,3.91-35.05,23.85v3c-.27,20.02,15.93,23.66,35.05,23.94,19.04-.27,35.23-3.91,34.96-23.94v-3Z"/>
    <path class="cls-2" d="m243.69,493.55l36.48-84.92h52.49l-61.3,122.33h-55.43l-61.21-122.33h52.49l36.48,84.92Z"/>
    <path class="cls-2" d="m336.21,408.63h139.95v31.31h-93.33v15.66h93.33v28.31h-93.33v15.66h93.33v31.4h-139.95v-122.33Z"/>
    <path class="cls-2" d="m616.11,408.54c24.64-.27,45.55,20.93,45.2,46.24,0,9.19-2.4,17.57-7.21,25.03-4.72,7.37-11.03,13.02-18.86,16.75l26.07,34.31h-49.64l-22.51-29.85h-41.64v29.85h-46.62v-122.33h115.21Zm-68.6,35.77v20.84h56.85c2.85,0,5.25-1,7.21-3,2.05-2.09,3.02-4.55,3.02-7.37,0-5.83-4.54-10.47-10.23-10.47h-56.85Z"/>
    <path class="cls-2" d="m790.93,408.63c24.64-.27,45.55,20.93,45.2,46.24.36,25.21-20.55,46.6-45.2,46.24h-68.6v29.85h-46.62v-122.33h115.21Zm-11.65,56.61c2.76,0,5.16-1,7.12-3,2.05-2.09,3.02-4.55,3.02-7.37s-.98-5.37-3.02-7.37c-1.96-2.09-4.36-3.1-7.12-3.1h-56.94v20.84h56.94Z"/>
    <path class="cls-2" d="m1010.33,465.15v8.92c.18,46.24-36.66,59.62-81.58,59.71-45.02-.09-81.85-13.47-81.67-59.71v-8.92c-.18-46.33,36.66-59.62,81.67-59.71,45.02,0,81.58,13.47,81.58,59.71Zm-46.62,2.91c.27-19.93-15.93-23.57-34.96-23.85-19.13.27-35.32,3.91-35.05,23.85v3c-.27,20.02,15.93,23.66,35.05,23.94,19.04-.27,35.23-3.91,34.96-23.94v-3Z"/>
    <path class="cls-2" d="m1219.76,408.63h52.49l-52.49,122.33h-55.43l-26.25-61.17-26.25,61.17h-55.43l-52.49-122.33h52.49l27.67,77.46,27.76-77.46h52.49l27.67,77.46,27.76-77.46Z"/>
    <path class="cls-2" d="m1275.81,408.63h139.95v31.31h-93.33v15.66h93.33v28.31h-93.33v15.66h93.33v31.4h-139.95v-122.33Z"/>
    <path class="cls-2" d="m1555.7,408.54c24.64-.27,45.55,20.93,45.2,46.24,0,9.19-2.4,17.57-7.21,25.03-4.72,7.37-11.03,13.02-18.86,16.75l26.07,34.31h-49.64l-22.51-29.85h-41.64v29.85h-46.62v-122.33h115.21Zm-68.6,35.77v20.84h56.85c2.85,0,5.25-1,7.21-3,2.05-2.09,3.02-4.55,3.02-7.37,0-5.83-4.54-10.47-10.23-10.47h-56.85Z"/>
  </g>
  <g>
    <path class="cls-3" d="m1655.42,530.87v-122.89h14.38v122.89h-14.38Zm11.4,0v-13.86h27.18c10.02,0,17.64-2.51,22.84-7.52,5.2-5.01,7.81-12.34,7.81-21.98v-36.17c0-9.64-2.6-16.96-7.81-21.98-5.2-5.01-12.82-7.52-22.84-7.52h-27.18v-13.86h26.68c14.92,0,26.27,3.75,34.04,11.24,7.76,7.49,11.65,18.43,11.65,32.79v34.82c0,9.58-1.73,17.64-5.2,24.17-3.47,6.54-8.61,11.48-15.41,14.83-6.8,3.35-15.19,5.03-25.16,5.03h-26.6Z"/>
    <path class="cls-3" d="m1839.16,407.98l-37.84,72.94v49.95h-14.38v-49.95l-37.84-72.94h15.86l29.16,58.4,29.16-58.4h15.86Z"/>
    <path class="cls-3" d="m1852.38,530.78v-122.81h13.63l64.28,102.86-3.47-.59v-102.27h14.29v122.81h-13.79l-64.85-102.61,4.21,1.35v101.26h-14.29Z"/>
    <path class="cls-3" d="m1957.63,530.87l44.28-122.89h14.38l44.28,122.89h-15.7l-35.77-104.64-35.77,104.64h-15.7Zm20.41-28.4v-13.86h63.2v13.86h-63.2Z"/>
    <path class="cls-3" d="m2129.8,492.92l36.93-84.94h14.13v122.89h-14.13v-98.8l.99,5.41-32.88,76.32h-10.08l-32.88-74.63.99-7.1v98.8h-14.13v-122.89h14.13l36.93,84.94Z"/>
    <path class="cls-3" d="m2226.21,407.98v122.89h-14.38v-122.89h14.38Z"/>
    <path class="cls-3" d="m2296.51,532.14c-8.37,0-15.7-1.9-21.98-5.71-6.28-3.8-11.15-9.14-14.62-16.02-3.47-6.87-5.2-14.9-5.2-24.09v-33.72c0-9.24,1.73-17.3,5.2-24.17,3.47-6.87,8.35-12.21,14.62-16.02,6.28-3.8,13.6-5.71,21.98-5.71,6.94,0,13.29,1.48,19.04,4.44,5.76,2.96,10.58,7.11,14.46,12.47,3.88,5.35,6.51,11.61,7.89,18.76h-14.54c-1.21-4.34-3.18-8.13-5.91-11.37-2.73-3.24-5.92-5.76-9.58-7.56-3.66-1.8-7.45-2.7-11.36-2.7-8.21,0-14.8,2.92-19.79,8.75-4.98,5.83-7.48,13.54-7.48,23.12v33.72c0,9.58,2.49,17.27,7.48,23.07,4.98,5.8,11.58,8.71,19.79,8.71,5.84,0,11.32-1.87,16.44-5.62,5.12-3.75,8.59-9.09,10.41-16.02h14.54c-1.38,7.16-4.02,13.41-7.93,18.76-3.91,5.35-8.73,9.51-14.46,12.47-5.73,2.96-12.06,4.44-19,4.44Z"/>
    <path class="cls-3" d="m2394.66,532.14c-5.84,0-11.33-.56-16.48-1.69-5.15-1.13-9.97-2.82-14.46-5.07-4.49-2.25-8.69-5.07-12.6-8.45l8.84-11.41c4.79,4.28,10.08,7.49,15.86,9.64,5.78,2.14,12.06,3.21,18.83,3.21,9.53,0,16.9-1.87,22.1-5.62,5.2-3.75,7.81-9,7.81-15.76v-.08c0-4.9-1.29-8.66-3.88-11.28s-5.98-4.59-10.16-5.92c-4.19-1.32-8.73-2.44-13.63-3.34-4.68-.85-9.38-1.83-14.09-2.96-4.71-1.13-9.02-2.79-12.93-4.99-3.91-2.2-7.06-5.32-9.46-9.38-2.4-4.06-3.59-9.47-3.59-16.23v-.08c0-11.44,3.72-20.3,11.15-26.58,7.44-6.28,17.93-9.42,31.48-9.42,6.39,0,12.67,1.06,18.83,3.17s12.2,5.34,18.09,9.68l-8.26,11.58c-4.9-3.61-9.72-6.28-14.46-8.03-4.74-1.75-9.47-2.62-14.21-2.62-9.03,0-16.03,1.89-20.99,5.66-4.96,3.78-7.44,9.13-7.44,16.06v.08c0,4.85,1.42,8.54,4.25,11.07,2.84,2.54,6.54,4.44,11.11,5.71,4.57,1.27,9.44,2.44,14.62,3.51,4.52.9,9.02,2,13.51,3.3,4.49,1.3,8.55,3.1,12.19,5.41,3.63,2.31,6.55,5.48,8.76,9.51,2.2,4.03,3.31,9.23,3.31,15.59v.17c0,11.33-3.86,20.09-11.57,26.29-7.71,6.2-18.56,9.3-32.55,9.3Z"/>
  </g>
  <g>
    <path class="cls-1" d="m1213.34,131.57v209.43h-353.31c-9.64,0-17.45-7.81-17.45-17.45v-52.37h281.07c9.64,0,17.45-7.81,17.45-17.45v-122.16h72.24Z"/>
    <path class="cls-1" d="m1596.2,18.17v202.15c0,9.94-8.06,18.01-18.01,18.01h-281.46v102.67h-72.24v-209.43h72.24v36.95h212.2c9.64,0,17.45-7.81,17.45-17.45v-63.8c0-9.64-7.81-17.45-17.45-17.45h-579.1c-9.64,0-17.45,7.81-17.45,17.45v122.76h-69.81V18.17c0-10.04,8.14-18.17,18.17-18.17h717.28c10.04,0,18.17,8.14,18.17,18.17Z"/>
  </g>
</svg>