<?xml version="1.0" encoding="UTF-8"?>
<svg id="OP_LOGO" xmlns="http://www.w3.org/2000/svg" viewBox="0 0 2463.76 1104.08">
  <defs>
    <style>
      .cls-1 {
        fill: #bfbfbf;
      }
    </style>
  </defs>
  <path class="cls-1" d="m1212.72,428.79v663.04H94.15c-30.52,0-55.25-24.74-55.25-55.25v-165.79h889.84c30.52,0,55.25-24.74,55.25-55.25v-386.75h228.72Z"/>
  <path class="cls-1" d="m2424.86,69.78v640c0,31.48-25.52,57.01-57.01,57.01h-891.09v325.05h-228.72V428.79h228.72v116.99h671.8c30.52,0,55.25-24.74,55.25-55.25v-201.99c0-30.52-24.74-55.25-55.25-55.25H315.16c-30.52,0-55.25,24.74-55.25,55.25v388.66H38.9V69.78c0-31.78,25.76-57.53,57.53-57.53h2270.89c31.78,0,57.54,25.76,57.54,57.54Z"/>
</svg>