<?xml version="1.0" encoding="UTF-8"?>
<svg id="Capa_1" data-name="Capa 1" xmlns="http://www.w3.org/2000/svg" viewBox="0 0 850.39 283.46">
  <defs>
    <style>
      .cls-1 {
        fill: #bfbfbf;
      }
    </style>
  </defs>
  <path class="cls-1" d="m433.43,74.55h44.24v9.94h-29.5v4.97h29.5v8.99h-29.5v4.97h29.5v9.97h-44.24v-38.85Z"/>
  <path class="cls-1" d="m533.92,97.18c1.52-2.37,2.28-5.03,2.28-7.95.11-8.04-6.5-14.77-14.29-14.68h-36.42v38.85h14.74v-9.48h13.16l7.12,9.48h15.69l-8.24-10.9c2.47-1.19,4.47-2.98,5.96-5.32Zm-13.44-5.61c-.62.64-1.38.95-2.28.95h-17.97v-6.62h17.97c1.8,0,3.23,1.47,3.23,3.32,0,.9-.31,1.68-.96,2.34Z"/>
  <path class="cls-1" d="m577.18,74.55h-36.42v38.85h14.74v-9.48h21.68c7.79.12,14.4-6.68,14.29-14.68.11-8.03-6.5-14.77-14.29-14.68Zm-1.43,17.02c-.62.64-1.38.95-2.25.95h-18v-6.62h18c.87,0,1.63.32,2.25.98.65.64.96,1.42.96,2.34s-.31,1.68-.96,2.34Z"/>
  <path class="cls-1" d="m620.74,74.55c-14.23.03-25.87,4.25-25.82,18.96v2.83c-.06,14.68,11.59,18.93,25.82,18.96,14.2-.03,25.85-4.28,25.79-18.96v-2.83c0-14.68-11.56-18.96-25.79-18.96Zm11.05,20.84c.08,6.36-5.03,7.51-11.05,7.6-6.05-.09-11.17-1.24-11.08-7.6v-.95c-.08-6.33,5.03-7.49,11.08-7.57,6.02.09,11.14,1.24,11.05,7.57v.95Z"/>
  <path class="cls-1" d="m712.74,74.55h16.59l-16.59,38.85h-17.52l-8.3-19.42-8.3,19.42h-17.52l-16.59-38.85h16.59l8.75,24.6,8.77-24.6h16.59l8.75,24.6,8.77-24.6Z"/>
  <path class="cls-1" d="m730.46,74.55h44.24v9.94h-29.5v4.97h29.5v8.99h-29.5v4.97h29.5v9.97h-44.24v-38.85Z"/>
  <path class="cls-1" d="m830.95,97.18c1.52-2.37,2.28-5.03,2.28-7.95.11-8.04-6.5-14.77-14.29-14.68h-36.42v38.85h14.74v-9.48h13.16l7.12,9.48h15.69l-8.24-10.9c2.48-1.19,4.47-2.98,5.96-5.32Zm-13.44-5.61c-.62.64-1.38.95-2.28.95h-17.97v-6.62h17.97c1.8,0,3.23,1.47,3.23,3.32,0,.9-.31,1.68-.96,2.34Z"/>
  <g>
    <path class="cls-1" d="m352.97,74.55c-14.23.03-25.87,4.25-25.82,18.96v2.83c-.06,14.68,11.59,18.93,25.82,18.96,14.2-.03,25.85-4.28,25.79-18.96v-2.83c0-14.68-11.56-18.96-25.79-18.96Zm11.05,20.84c.08,6.36-5.03,7.51-11.05,7.6-6.05-.09-11.17-1.24-11.08-7.6v-.95c-.08-6.33,5.03-7.49,11.08-7.57,6.02.09,11.14,1.24,11.05,7.57v.95Z"/>
    <path class="cls-1" d="m404.18,101.51l11.53-26.97h16.59l-19.38,38.85h-17.52l-19.35-38.85h16.59l11.53,26.97Z"/>
    <g>
      <g>
        <rect class="cls-1" x="327.15" y="128.86" width="9.33" height="79.75"/>
        <path class="cls-1" d="m334.55,208.62v-9c40.79,2.16,37.91-6.61,37.53-42.62,1.06-22.01-22.14-19.36-37.53-19.14v-9c22.95-.94,47.3-.8,46.96,28.58,1.63,41.79-1.96,53.59-46.96,51.17Z"/>
      </g>
      <polygon class="cls-1" points="446.39 129.16 421.83 176.5 421.83 208.92 412.5 208.92 412.5 176.5 387.95 129.16 398.24 129.16 417.17 167.07 436.09 129.16 446.39 129.16"/>
      <polygon class="cls-1" points="454.96 208.92 454.96 129.22 463.81 129.22 505.52 195.97 503.27 195.59 503.27 129.22 512.54 129.22 512.54 208.92 503.59 208.92 461.5 142.33 464.24 143.21 464.24 208.92 454.96 208.92"/>
      <g>
        <polygon class="cls-1" points="523.27 208.92 552 129.16 561.33 129.16 590.07 208.92 579.88 208.92 556.67 141.01 533.45 208.92 523.27 208.92"/>
        <rect class="cls-1" x="536.51" y="181.49" width="41.02" height="9"/>
      </g>
      <polygon class="cls-1" points="635 184.29 658.96 129.16 668.13 129.16 668.13 208.92 658.96 208.92 658.96 144.8 659.61 148.31 638.27 197.84 631.73 197.84 610.39 149.4 611.03 144.8 611.03 208.92 601.87 208.92 601.87 129.16 611.03 129.16 635 184.29"/>
      <rect class="cls-1" x="688.24" y="129.16" width="9.33" height="79.75"/>
      <path class="cls-1" d="m743.19,208.91c-16.62.46-27.66-13.57-27.13-29.73.45-9.84-1.74-29.12,3.38-37.57,10.83-22.95,47.65-15.97,50.61,9.05h-9.44c-2.92-13.27-21.5-19.21-30.27-8.36-7.38,7.04-4.22,27.43-4.85,36.89-1.83,22.88,29.31,28.63,35.12,6.58h9.44c-2.28,13.18-13.34,23.39-26.86,23.15Z"/>
      <path class="cls-1" d="m806.89,208.81c-10.51.06-20.39-2.99-28.25-9.87l5.74-7.4c11.81,13.67,52.45,10.9,39.41-12.92-8.71-7.67-23.16-5.16-32.97-11.16-6.01-3.54-8.53-9-8.47-16.67-.62-26.52,34.88-28.86,51.63-15.03l-5.36,7.51c-25.57-20.34-52.99,8.54-27.08,18.13,10.69,3.45,25.63,2.96,31.85,14.09,8.14,18.17-6.21,34.94-26.49,33.32Z"/>
    </g>
    <g>
      <path class="cls-1" d="m159.71,126.39v82.52H20.49c-3.8,0-6.88-3.08-6.88-6.88v-20.63h110.75c3.8,0,6.88-3.08,6.88-6.88v-48.14h28.47Z"/>
      <path class="cls-1" d="m310.58,81.71v79.66c0,3.92-3.18,7.1-7.1,7.1h-110.91v40.46h-28.47v-82.52h28.47v14.56h83.61c3.8,0,6.88-3.08,6.88-6.88v-25.14c0-3.8-3.08-6.88-6.88-6.88H48c-3.8,0-6.88,3.08-6.88,6.88v48.37H13.62v-75.6c0-3.95,3.21-7.16,7.16-7.16h282.64c3.95,0,7.16,3.21,7.16,7.16Z"/>
    </g>
  </g>
</svg>